<?xml version="1.0" encoding="UTF-8" standalone="no"?>
<!DOCTYPE svg PUBLIC "-//W3C//DTD SVG 1.1//EN"
 "http://www.w3.org/Graphics/SVG/1.1/DTD/svg11.dtd">
<!-- Generated by graphviz version 5.0.0 (20220707.1540)
 -->
<!-- Title: dependency&#45;cruiser output Pages: 1 -->
<svg width="161pt" height="76pt"
 viewBox="0.00 0.00 161.00 76.00" xmlns="http://www.w3.org/2000/svg" xmlns:xlink="http://www.w3.org/1999/xlink">
<g id="graph0" class="graph" transform="scale(1 1) rotate(0) translate(4 72)">
<title>dependency&#45;cruiser output</title>
<polygon fill="white" stroke="transparent" points="-4,4 -4,-72 157,-72 157,4 -4,4"/>
<g id="clust1" class="cluster">
<title>cluster_packages</title>
<path fill="#ffffff" stroke="black" stroke-width="2" d="M20,-8C20,-8 133,-8 133,-8 139,-8 145,-14 145,-20 145,-20 145,-48 145,-48 145,-54 139,-60 133,-60 133,-60 20,-60 20,-60 14,-60 8,-54 8,-48 8,-48 8,-20 8,-20 8,-14 14,-8 20,-8"/>
<text text-anchor="middle" x="76.5" y="-48.8" font-family="Helvetica,sans-Serif" font-weight="bold" font-size="9.00">packages</text>
</g>
<!-- packages/global -->
<g id="node1" class="node">
<title>packages/global</title>
<g id="a_node1"><a xlink:href="127.0.0.1:3000/berry-high-level-dependencies.html/packages/global" xlink:title="global">
<polygon fill="#ccccff" stroke="black" points="137,-34 85,-34 83,-32 83,-16 135,-16 137,-18 137,-34"/>
<polyline fill="none" stroke="black" points="135,-32 83,-32 "/>
<polyline fill="none" stroke="black" points="135,-32 135,-16 "/>
<polyline fill="none" stroke="black" points="135,-32 137,-34 "/>
<text text-anchor="start" x="97" y="-22.8" font-family="Helvetica,sans-Serif" font-size="9.00">global</text>
</a>
</g>
</g>
<!-- packages/service -->
<g id="node2" class="node">
<title>packages/service</title>
<g id="a_node2"><a xlink:href="127.0.0.1:3000/berry-high-level-dependencies.html/packages/service" xlink:title="service">
<polygon fill="#ccccff" stroke="black" points="70,-34 18,-34 16,-32 16,-16 68,-16 70,-18 70,-34"/>
<polyline fill="none" stroke="black" points="68,-32 16,-32 "/>
<polyline fill="none" stroke="black" points="68,-32 68,-16 "/>
<polyline fill="none" stroke="black" points="68,-32 70,-34 "/>
<text text-anchor="start" x="28" y="-22.8" font-family="Helvetica,sans-Serif" font-size="9.00">service</text>
</a>
</g>
</g>
<!-- packages/service&#45;&gt;packages/global -->
<g id="edge1" class="edge">
<title>packages/service&#45;&gt;packages/global</title>
<path fill="none" stroke="#000000" stroke-width="2" stroke-opacity="0.200000" d="M70.25,-25C70.25,-25 76.99,-25 76.99,-25"/>
<polygon fill="#000000" fill-opacity="0.200000" stroke="#000000" stroke-width="2" stroke-opacity="0.200000" points="76.99,-27.1 82.99,-25 76.99,-22.9 76.99,-27.1"/>
</g>
</g>
</svg>
